<svg width="40" height="40" viewBox="0 0 40 40" fill="none" xmlns="http://www.w3.org/2000/svg">
<path fill-rule="evenodd" clip-rule="evenodd" d="M10 24.5959C10 24.2151 10.1547 23.8506 10.4286 23.586L11.4576 22.5922C11.8493 22.2139 12.0698 21.6922 12.0681 21.1476L12.0587 17.9946C12.0454 13.5832 15.6179 10 20.0293 10C24.4314 10 28 13.5686 28 17.9707L28 21.1716C28 21.702 28.2107 22.2107 28.5858 22.5858L29.5858 23.5858C29.851 23.851 30 24.2107 30 24.5858C30 25.3668 29.3668 26 28.5858 26H24C24 28.2091 22.2091 30 20 30C17.7909 30 16 28.2091 16 26H11.4041C10.6286 26 10 25.3714 10 24.5959ZM18 26C18 27.1046 18.8954 28 20 28C21.1046 28 22 27.1046 22 26H18ZM26 21.1716C26 22.2324 26.4214 23.2499 27.1716 24L12.8785 24C13.6422 23.246 14.0714 22.2161 14.0681 21.1416L14.0587 17.9886C14.0487 14.6841 16.7248 12 20.0293 12C23.3268 12 26 14.6732 26 17.9707L26 21.1716Z" fill="white"/>
</svg>
