<svg width="32" height="32" viewBox="0 0 32 32" fill="none" xmlns="http://www.w3.org/2000/svg">
<g id="google-play-store_svgrepo.com">
<g id="Group">
<path id="Vector" d="M16.9998 14.5L21.1998 10L4.8998 1.2C4.7998 1.1 4.5998 1.1 4.2998 1L16.9998 14.5Z" fill="#00F076"/>
<path id="Vector_2" d="M22.9998 21L28.8998 17.8C29.5998 17.4 29.9998 16.8 29.9998 16C29.9998 15.2 29.5998 14.5 28.8998 14.2L22.9998 11L18.2998 16L22.9998 21Z" fill="#FFC900"/>
<path id="Vector_3" d="M2.4 1.90002C2.1 2.20002 2 2.60002 2 3.00002V29C2 29.4 2.1 29.8 2.4 30.2L15.6 16L2.4 1.90002Z" fill="#00D6FF"/>
<path id="Vector_4" d="M16.9998 17.5L4.2998 31C4.4998 31 4.6998 30.9 4.8998 30.8L21.1998 22L16.9998 17.5Z" fill="#FF3A44"/>
</g>
</g>
</svg>
