<svg width="40" height="40" viewBox="0 0 40 40" fill="none" xmlns="http://www.w3.org/2000/svg">
<g id="ic:baseline-apple">
<path id="Vector" d="M28.4173 32.8C26.7839 34.3833 25.0006 34.1333 23.2839 33.3833C21.4673 32.6167 19.8006 32.5833 17.8839 33.3833C15.4839 34.4167 14.2173 34.1167 12.7839 32.8C4.6506 24.4167 5.8506 11.65 15.0839 11.1833C17.3339 11.3 18.9006 12.4167 20.2173 12.5167C22.1839 12.1167 24.0673 10.9667 26.1673 11.1167C28.6839 11.3167 30.5839 12.3167 31.8339 14.1167C26.6339 17.2333 27.8673 24.0833 32.6339 26C31.6839 28.5 30.4506 30.9833 28.4006 32.8167L28.4173 32.8ZM20.0506 11.0833C19.8006 7.36667 22.8173 4.3 26.2839 4C26.7673 8.3 22.3839 11.5 20.0506 11.0833Z" fill="#4C4CDB"/>
</g>
</svg>
